# xmcd
#
# Track frame offsets: 
#        267
#        17615
#        34072
#        53352
#        70220
#        91437
#        109367
#        125807
#        141985
#        157365
#
# Disc length: 2469 seconds
#
# Revision: 7
# Processed by: cddbd v1.5.2PL0 Copyright (c) Steve Scherf et al.
# Submitted via: ExactAudioCopy v0.99pb5
#
DISCID=9009a20a
DTITLE=Jackson Browne - For Everyman (Germany, 243 003 SD 5067-2)
DYEAR=1973
DGENRE=Rock
TTITLE0=Take It Easy
TTITLE1=Our Lady of the Well
TTITLE2=Colors of the Sun
TTITLE3=I Thought I Was a Child
TTITLE4=These Days
TTITLE5=Red Neck Friend
TTITLE6=The Times You've Come
TTITLE7=Ready or Not
TTITLE8=Sing My Songs to Me
TTITLE9=For Everyman
EXTD=YEAR: 1973
EXTT0=
EXTT1=
EXTT2=
EXTT3=
EXTT4=
EXTT5=
EXTT6=
EXTT7=
EXTT8=
EXTT9=
PLAYORDER=
